<svg xmlns="http://www.w3.org/2000/svg"><symbol id="i-Check"><polyline points="20 6 9 17 4 12" /></symbol><symbol id="i-ChevronDown"><path d="m6 9 6 6 6-6" /></symbol><symbol id="i-File"><path d="M14.5 2H6a2 2 0 0 0-2 2v16a2 2 0 0 0 2 2h12a2 2 0 0 0 2-2V7.5L14.5 2z" /><polyline points="14 2 14 8 20 8" /></symbol><symbol id="i-FileAudio"><path d="M17.5 22h.5c.5 0 1-.2 1.4-.6.4-.4.6-.9.6-1.4V7.5L14.5 2H6c-.5 0-1 .2-1.4.6C4.2 3 4 3.5 4 4v3" /><polyline points="14 2 14 8 20 8" /><path d="M10 20v-1a2 2 0 1 1 4 0v1a2 2 0 1 1-4 0Z" /><path d="M6 20v-1a2 2 0 1 0-4 0v1a2 2 0 1 0 4 0Z" /><path d="M2 19v-3a6 6 0 0 1 12 0v3" /></symbol><symbol id="i-FileCode"><path d="M14.5 2H6a2 2 0 0 0-2 2v16a2 2 0 0 0 2 2h12a2 2 0 0 0 2-2V7.5L14.5 2z" /><polyline points="14 2 14 8 20 8" /><path d="m10 13-2 2 2 2" /><path d="m14 17 2-2-2-2" /></symbol><symbol id="i-FileImage"><path d="M14.5 2H6a2 2 0 0 0-2 2v16a2 2 0 0 0 2 2h12a2 2 0 0 0 2-2V7.5L14.5 2z" /><polyline points="14 2 14 8 20 8" /><circle cx="10" cy="13" r="2" /><path d="m20 17-1.09-1.09a2 2 0 0 0-2.82 0L10 22" /></symbol><symbol id="i-FileJson"><path d="M14.5 2H6a2 2 0 0 0-2 2v16a2 2 0 0 0 2 2h12a2 2 0 0 0 2-2V7.5L14.5 2z" /><polyline points="14 2 14 8 20 8" /><path d="M10 12a1 1 0 0 0-1 1v1a1 1 0 0 1-1 1 1 1 0 0 1 1 1v1a1 1 0 0 0 1 1" /><path d="M14 18a1 1 0 0 0 1-1v-1a1 1 0 0 1 1-1 1 1 0 0 1-1-1v-1a1 1 0 0 0-1-1" /></symbol><symbol id="i-FileText"><path d="M14.5 2H6a2 2 0 0 0-2 2v16a2 2 0 0 0 2 2h12a2 2 0 0 0 2-2V7.5L14.5 2z" /><polyline points="14 2 14 8 20 8" /><line x1="16" x2="8" y1="13" y2="13" /><line x1="16" x2="8" y1="17" y2="17" /><line x1="10" x2="8" y1="9" y2="9" /></symbol><symbol id="i-FileType"><path d="M14.5 2H6a2 2 0 0 0-2 2v16a2 2 0 0 0 2 2h12a2 2 0 0 0 2-2V7.5L14.5 2z" /><polyline points="14 2 14 8 20 8" /><path d="M9 13v-1h6v1" /><path d="M11 18h2" /><path d="M12 12v6" /></symbol><symbol id="i-FileVideo"><path d="M14.5 2H6a2 2 0 0 0-2 2v16a2 2 0 0 0 2 2h12a2 2 0 0 0 2-2V7.5L14.5 2z" /><polyline points="14 2 14 8 20 8" /><path d="m10 11 5 3-5 3v-6Z" /></symbol><symbol id="i-FolderClosed"><path d="M20 20a2 2 0 0 0 2-2V8a2 2 0 0 0-2-2h-7.9a2 2 0 0 1-1.69-.9L9.6 3.9A2 2 0 0 0 7.93 3H4a2 2 0 0 0-2 2v13a2 2 0 0 0 2 2Z" /><path d="M2 10h20" /></symbol><symbol id="i-FolderOpen"><path d="m6 14 1.5-2.9A2 2 0 0 1 9.24 10H20a2 2 0 0 1 1.94 2.5l-1.54 6a2 2 0 0 1-1.95 1.5H4a2 2 0 0 1-2-2V5a2 2 0 0 1 2-2h3.9a2 2 0 0 1 1.69.9l.81 1.2a2 2 0 0 0 1.67.9H18a2 2 0 0 1 2 2v2" /></symbol><symbol id="i-Github"><path d="M15 22v-4a4.8 4.8 0 0 0-1-3.5c3 0 6-2 6-5.5.08-1.25-.27-2.48-1-3.5.28-1.15.28-2.35 0-3.5 0 0-1 0-3 1.5-2.64-.5-5.36-.5-8 0C6 2 5 2 5 2c-.3 1.15-.3 2.35 0 3.5A5.403 5.403 0 0 0 4 9c0 3.5 3 5.5 6 5.5-.39.49-.68 1.05-.85 1.65-.17.6-.22 1.23-.15 1.85v4" /><path d="M9 18c-4.51 2-5-2-7-2" /></symbol><symbol id="i-Menu"><line x1="4" x2="20" y1="12" y2="12" /><line x1="4" x2="20" y1="6" y2="6" /><line x1="4" x2="20" y1="18" y2="18" /></symbol><symbol id="i-Moon"><path d="M12 3a6 6 0 0 0 9 9 9 9 0 1 1-9-9Z" /></symbol><symbol id="i-Sun"><circle cx="12" cy="12" r="4" /><path d="M12 2v2" /><path d="M12 20v2" /><path d="m4.93 4.93 1.41 1.41" /><path d="m17.66 17.66 1.41 1.41" /><path d="M2 12h2" /><path d="M20 12h2" /><path d="m6.34 17.66-1.41 1.41" /><path d="m19.07 4.93-1.41 1.41" /></symbol></svg>